<?xml version="1.0" standalone="no"?>
<!DOCTYPE svg PUBLIC "-//W3C//DTD SVG 20010904//EN"
 "http://www.w3.org/TR/2001/REC-SVG-20010904/DTD/svg10.dtd">
<svg version="1.0" xmlns="http://www.w3.org/2000/svg"
 width="2048.000000pt" height="2048.000000pt" viewBox="0 0 2048.000000 2048.000000"
 preserveAspectRatio="xMidYMid meet">

<g transform="translate(0.000000,2048.000000) scale(0.100000,-0.100000)"
fill="#ffffff" stroke="none">
<path d="M8060 18160 c-413 -9 -575 -26 -676 -72 -53 -25 -68 -163 -84 -818
-6 -228 -12 -415 -13 -416 -1 -1 -128 -11 -282 -23 -2430 -189 -4846 -472
-6830 -800 l-170 -28 -3 -1541 -2 -1542 1426 0 1426 0 137 -70 c217 -112 273
-165 394 -377 l58 -100 2 -1229 c2 -1347 2 -1356 -55 -1491 -85 -206 -270
-377 -452 -418 -121 -28 -451 -34 -1718 -35 l-1218 0 0 -2970 0 -2970 699 0
c665 0 700 1 705 18 4 10 17 82 31 161 93 531 214 892 383 1144 195 291 497
599 787 802 385 270 776 398 1322 436 395 27 765 -25 1080 -152 181 -73 422
-198 533 -277 114 -80 479 -440 592 -582 308 -389 480 -782 549 -1255 22 -151
34 -207 52 -236 13 -21 57 -39 97 -39 25 0 28 5 34 43 12 73 25 2921 26 5470
l0 2447 -777 0 -778 0 -80 143 c-85 152 -179 315 -460 797 -343 586 -352 605
-308 641 22 19 1350 24 3710 14 l1761 -7 6 -42 c3 -22 8 -380 12 -793 l7 -753
-742 0 c-407 0 -741 -1 -741 -2 0 -2 -7 -367 -15 -813 -18 -947 -18 -1567 -5
-4025 5 -998 10 -2113 10 -2477 l0 -663 1810 0 1810 0 0 3990 0 3990 -785 0
-786 0 6 348 c3 191 8 548 11 793 l6 446 1222 6 c2351 13 4323 4 4347 -20 10
-10 -106 -224 -464 -854 -129 -229 -270 -485 -311 -568 l-76 -151 -794 0 -793
0 -7 -3007 c-3 -1655 -9 -3450 -12 -3990 l-7 -983 3407 0 3406 0 0 2968 0
2967 -1325 -3 -1325 -4 -138 73 c-75 39 -155 84 -178 99 -69 48 -159 154 -237
279 l-74 120 -7 543 c-11 859 -9 1748 4 1883 25 264 59 345 204 491 144 144
207 176 413 211 84 14 223 17 979 20 946 5 1489 -6 1609 -32 38 -8 71 -15 73
-15 1 0 1 656 0 1457 l-3 1457 -115 51 c-706 317 -1692 609 -2670 794 -1069
201 -1968 307 -3185 377 l-290 16 -200 197 c-201 198 -347 322 -505 430 -379
260 -791 430 -1187 491 -107 16 -218 23 -488 30 -405 11 -3263 10 -3775 0z"/>
<path d="M3860 5334 c-14 -2 -59 -9 -100 -15 -600 -86 -1166 -443 -1490 -940
-220 -337 -331 -716 -333 -1134 -1 -265 33 -474 114 -713 185 -544 606 -995
1143 -1228 292 -126 468 -158 866 -157 356 0 569 38 829 149 360 153 756 500
973 850 197 319 291 636 305 1034 18 518 -119 936 -438 1335 -79 99 -299 319
-399 398 -270 215 -529 327 -934 404 -77 14 -476 27 -536 17z m433 -1034 c197
-53 376 -158 522 -304 165 -166 261 -339 307 -551 18 -88 16 -313 -5 -411 -51
-239 -179 -482 -317 -600 -306 -262 -721 -358 -1074 -247 -175 54 -325 150
-458 292 -215 228 -289 429 -289 775 1 328 99 565 318 766 167 154 340 247
538 290 122 27 343 22 458 -10z"/>
</g>
</svg>
